{
  "accessors": [
    {
      "bufferView": 1,
      "componentType": 5126,
      "count": 65532,
      "max": [
        0.35059699416160583,
        0.18913799524307251,
        1.7953089475631714
      ],
      "min": [
        -0.22471199929714203,
        -0.1409049928188324,
        -0.0099719995632767677
      ],
      "type": "VEC3"
    },
    {
      "bufferView": 1,
      "byteOffset": 786384,
      "componentType": 5126,
      "count": 65532,
      "max": [
        0.9999995231628418,
        0.99999964237213135,
        0.99998962879180908
      ],
      "min": [
        -0.99999964237213135,
        -0.99999982118606567,
        -0.99999403953552246
      ],
      "type": "VEC3"
    },
    {
      "bufferView": 0,
      "componentType": 5125,
      "count": 361152,
      "max": [
        65531
      ],
      "min": [
        0
      ],
      "type": "SCALAR"
    },
    {
      "bufferView": 1,
      "byteOffset": 1572768,
      "componentType": 5126,
      "count": 65532,
      "max": [
        0.34219300746917725,
        0.19503900408744812,
        1.7926809787750244
      ],
      "min": [
        -0.35059699416160583,
        -0.1409049928188324,
        -0.0087970001623034477
      ],
      "type": "VEC3"
    },
    {
      "bufferView": 1,
      "byteOffset": 2359152,
      "componentType": 5126,
      "count": 65532,
      "max": [
        0.99999833106994629,
        0.99999958276748657,
        0.99954527616500854
      ],
      "min": [
        -0.99999439716339111,
        -0.99999076128005981,
        -0.99999403953552246
      ],
      "type": "VEC3"
    },
    {
      "bufferView": 0,
      "byteOffset": 1444608,
      "componentType": 5125,
      "count": 337605,
      "max": [
        65531
      ],
      "min": [
        0
      ],
      "type": "SCALAR"
    },
    {
      "bufferView": 1,
      "byteOffset": 3145536,
      "componentType": 5126,
      "count": 41482,
      "max": [
        0.0013160000089555979,
        0.19503900408744812,
        1.7925020456314087
      ],
      "min": [
        -0.34943398833274841,
        -0.074643000960350037,
        -0.0099719995632767677
      ],
      "type": "VEC3"
    },
    {
      "bufferView": 1,
      "byteOffset": 3643320,
      "componentType": 5126,
      "count": 41482,
      "max": [
        0.99999499320983887,
        0.99995702505111694,
        0.99954527616500854
      ],
      "min": [
        -0.99999833106994629,
        -0.99997198581695557,
        -0.99997025728225708
      ],
      "type": "VEC3"
    },
    {
      "bufferView": 0,
      "byteOffset": 2795028,
      "componentType": 5125,
      "count": 213879,
      "max": [
        41481
      ],
      "min": [
        0
      ],
      "type": "SCALAR"
    }
  ],
  "asset": {
    "extras": {
      "author": "varvar (https://sketchfab.com/zeroran)",
      "license": "CC-BY-4.0 (http://creativecommons.org/licenses/by/4.0/)",
      "source": "https://sketchfab.com/3d-models/anatomy-study-20-basemesh-human-male-body-c3f13a4baa2f4ea5a0a88d29e7fa1779",
      "title": "Anatomy study 2.0 Basemesh Human Male Body"
    },
    "generator": "Sketchfab-6.18.0",
    "version": "2.0"
  },
  "bufferViews": [
    {
      "buffer": 0,
      "byteLength": 3650544,
      "byteOffset": 0,
      "name": "floatBufferViews",
      "target": 34963
    },
    {
      "buffer": 0,
      "byteLength": 4141104,
      "byteOffset": 3650544,
      "byteStride": 12,
      "name": "floatBufferViews",
      "target": 34962
    }
  ],
  "buffers": [
    {
      "byteLength": 7791648,
      "uri": "scene.bin"
    }
  ],
  "materials": [
    {
      "doubleSided": false,
      "name": "Scene_-_Root",
      "pbrMetallicRoughness": {
        "baseColorFactor": [
          1,
          1,
          1,
          1
        ],
        "metallicFactor": 0,
        "roughnessFactor": 0.66634908536585369
      }
    }
  ],
  "meshes": [
    {
      "primitives": [
        {
          "attributes": {
            "NORMAL": 1,
            "POSITION": 0
          },
          "indices": 2,
          "material": 0,
          "mode": 4
        }
      ]
    },
    {
      "primitives": [
        {
          "attributes": {
            "NORMAL": 4,
            "POSITION": 3
          },
          "indices": 5,
          "material": 0,
          "mode": 4
        }
      ]
    },
    {
      "primitives": [
        {
          "attributes": {
            "NORMAL": 7,
            "POSITION": 6
          },
          "indices": 8,
          "material": 0,
          "mode": 4
        }
      ]
    }
  ],
  "nodes": [
    {
      "children": [
        1
      ],
      "name": "RootNode (gltf orientation matrix)",
      "rotation": [
        -0.70710678118654746,
        -0,
        -0,
        0.70710678118654757
      ]
    },
    {
      "children": [
        2
      ],
      "name": "RootNode (model correction matrix)"
    },
    {
      "children": [
        3,
        4,
        5
      ],
      "name": "tofab.obj.cleaner.materialmerger.gles"
    },
    {
      "mesh": 0,
      "name": ""
    },
    {
      "mesh": 1,
      "name": ""
    },
    {
      "mesh": 2,
      "name": ""
    }
  ],
  "scene": 0,
  "scenes": [
    {
      "name": "OSG_Scene",
      "nodes": [
        0
      ]
    }
  ]
}

