{
  "accessors": [
    {
      "bufferView": 2,
      "componentType": 5126,
      "count": 10849,
      "max": [
        69.366065979003906,
        -0.49570298194885254,
        17.907375335693359
      ],
      "min": [
        -69.366058349609375,
        -182.11666870117188,
        -12.723443031311035
      ],
      "type": "VEC3"
    },
    {
      "bufferView": 2,
      "byteOffset": 130188,
      "componentType": 5126,
      "count": 10849,
      "max": [
        1,
        0.99999994039535522,
        1
      ],
      "min": [
        -1,
        -0.99999994039535522,
        -1
      ],
      "type": "VEC3"
    },
    {
      "bufferView": 3,
      "componentType": 5126,
      "count": 10849,
      "max": [
        1,
        1,
        1,
        1
      ],
      "min": [
        -1,
        -1,
        -1,
        -1
      ],
      "type": "VEC4"
    },
    {
      "bufferView": 3,
      "byteOffset": 173584,
      "componentType": 5126,
      "count": 10849,
      "max": [
        0.58431375026702881,
        0.58431375026702881,
        0.58431375026702881,
        1
      ],
      "min": [
        0,
        0,
        0,
        1
      ],
      "type": "VEC4"
    },
    {
      "bufferView": 1,
      "componentType": 5126,
      "count": 10849,
      "max": [
        1.001970648765564,
        0.99540895223617554
      ],
      "min": [
        0.0084259165450930595,
        0.0037792266812175512
      ],
      "type": "VEC2"
    },
    {
      "bufferView": 0,
      "componentType": 5125,
      "count": 27030,
      "max": [
        10848
      ],
      "min": [
        0
      ],
      "type": "SCALAR"
    },
    {
      "bufferView": 4,
      "componentType": 5126,
      "count": 1,
      "max": [
        1,
        0,
        0,
        0,
        0,
        1,
        0,
        0,
        0,
        0,
        1,
        0,
        0,
        0,
        0,
        1
      ],
      "min": [
        1,
        0,
        0,
        0,
        0,
        1,
        0,
        0,
        0,
        0,
        1,
        0,
        0,
        0,
        0,
        1
      ],
      "type": "MAT4"
    }
  ],
  "asset": {
    "extras": {
      "author": "robomax (https://sketchfab.com/robomax)",
      "license": "CC-BY-NC-4.0 (http://creativecommons.org/licenses/by-nc/4.0/)",
      "source": "https://sketchfab.com/models/0c5cf6b017ba48f1bb32244ae1fefd2d",
      "title": "Crush Dummy"
    },
    "generator": "Sketchfab-3.48.2",
    "version": "2.0"
  },
  "bufferViews": [
    {
      "buffer": 0,
      "byteLength": 108120,
      "byteOffset": 0,
      "name": "floatBufferViews",
      "target": 34963
    },
    {
      "buffer": 0,
      "byteLength": 86792,
      "byteOffset": 108120,
      "byteStride": 8,
      "name": "floatBufferViews",
      "target": 34962
    },
    {
      "buffer": 0,
      "byteLength": 260376,
      "byteOffset": 194912,
      "byteStride": 12,
      "name": "floatBufferViews",
      "target": 34962
    },
    {
      "buffer": 0,
      "byteLength": 347168,
      "byteOffset": 455288,
      "byteStride": 16,
      "name": "floatBufferViews",
      "target": 34962
    },
    {
      "buffer": 0,
      "byteLength": 64,
      "byteOffset": 802456,
      "byteStride": 64,
      "name": "floatBufferViews"
    }
  ],
  "buffers": [
    {
      "byteLength": 802520,
      "uri": "scene.bin"
    }
  ],
  "images": [
    {
      "uri": "textures/default_emissive.png"
    },
    {
      "uri": "textures/default_metallicRoughness.png"
    },
    {
      "uri": "textures/default_normal.png"
    },
    {
      "uri": "textures/default_baseColor.png"
    }
  ],
  "materials": [
    {
      "doubleSided": false,
      "emissiveFactor": [
        1,
        1,
        1
      ],
      "emissiveTexture": {
        "index": 0,
        "texCoord": 0
      },
      "name": "default",
      "normalTexture": {
        "index": 2,
        "scale": 1,
        "texCoord": 0
      },
      "occlusionTexture": {
        "index": 1,
        "strength": 1,
        "texCoord": 0
      },
      "pbrMetallicRoughness": {
        "baseColorFactor": [
          1,
          1,
          1,
          1
        ],
        "baseColorTexture": {
          "index": 3,
          "texCoord": 0
        },
        "metallicFactor": 1,
        "metallicRoughnessTexture": {
          "index": 1,
          "texCoord": 0
        },
        "roughnessFactor": 1
      }
    }
  ],
  "meshes": [
    {
      "primitives": [
        {
          "attributes": {
            "COLOR_0": 3,
            "NORMAL": 1,
            "POSITION": 0,
            "TANGENT": 2,
            "TEXCOORD_0": 4
          },
          "indices": 5,
          "material": 0,
          "mode": 4
        }
      ]
    }
  ],
  "nodes": [
    {
      "children": [
        1
      ],
      "name": "RootNode (gltf orientation matrix)",
      "rotation": [
        -0.70710678118654746,
        -0,
        -0,
        0.70710678118654757
      ]
    },
    {
      "children": [
        2
      ],
      "name": "RootNode (model correction matrix)"
    },
    {
      "children": [
        3
      ],
      "matrix": [
        1,
        0,
        0,
        0,
        0,
        0,
        1,
        0,
        0,
        -1,
        0,
        0,
        0,
        0,
        0,
        1
      ],
      "name": "f5cbfeeb37544aa48dbba5bfd3e5bfdb.fbx"
    },
    {
      "children": [
        4
      ],
      "name": "RootNode"
    },
    {
      "children": [
        5
      ],
      "matrix": [
        1,
        0,
        0,
        0,
        0,
        2.2204460492503131e-16,
        -1,
        0,
        0,
        1,
        2.2204460492503131e-16,
        0,
        0,
        0,
        0,
        1
      ],
      "name": "root"
    },
    {
      "children": [
        6,
        7
      ],
      "name": ""
    },
    {
      "name": "_rootJoint"
    },
    {
      "children": [
        8
      ],
      "matrix": [
        1,
        0,
        7.7548182426846345e-26,
        0,
        7.7548182426846345e-26,
        6.123233995736766e-17,
        -1,
        0,
        -4.7484566694366197e-42,
        1,
        6.123233995736766e-17,
        0,
        1.3536841578012896e-28,
        0,
        2.2204460492503131e-16,
        1
      ],
      "name": ""
    },
    {
      "mesh": 0,
      "name": ""
    }
  ],
  "samplers": [
    {
      "magFilter": 9729,
      "minFilter": 9987,
      "wrapS": 10497,
      "wrapT": 10497
    }
  ],
  "scene": 0,
  "scenes": [
    {
      "name": "OSG_Scene",
      "nodes": [
        0
      ]
    }
  ],
  "skins": [
    {
      "inverseBindMatrices": 6,
      "joints": [
        6
      ],
      "skeleton": 6
    }
  ],
  "textures": [
    {
      "sampler": 0,
      "source": 0
    },
    {
      "sampler": 0,
      "source": 1
    },
    {
      "sampler": 0,
      "source": 2
    },
    {
      "sampler": 0,
      "source": 3
    }
  ]
}

